<svg width="30" height="22" viewBox="0 0 30 22" fill="none" xmlns="http://www.w3.org/2000/svg">
<path d="M0 2C0 1.05719 0 0.585786 0.292893 0.292893C0.585786 0 1.05719 0 2 0H28C28.9428 0 29.4142 0 29.7071 0.292893C30 0.585786 30 1.05719 30 2C30 2.94281 30 3.41421 29.7071 3.70711C29.4142 4 28.9428 4 28 4H2C1.05719 4 0.585786 4 0.292893 3.70711C0 3.41421 0 2.94281 0 2Z" fill="white"/>
<path d="M0 11C0 10.0572 0 9.58579 0.292893 9.29289C0.585786 9 1.05719 9 2 9H28C28.9428 9 29.4142 9 29.7071 9.29289C30 9.58579 30 10.0572 30 11C30 11.9428 30 12.4142 29.7071 12.7071C29.4142 13 28.9428 13 28 13H2C1.05719 13 0.585786 13 0.292893 12.7071C0 12.4142 0 11.9428 0 11Z" fill="white"/>
<path d="M0 20C0 19.0572 0 18.5858 0.292893 18.2929C0.585786 18 1.05719 18 2 18H28C28.9428 18 29.4142 18 29.7071 18.2929C30 18.5858 30 19.0572 30 20C30 20.9428 30 21.4142 29.7071 21.7071C29.4142 22 28.9428 22 28 22H2C1.05719 22 0.585786 22 0.292893 21.7071C0 21.4142 0 20.9428 0 20Z" fill="white"/>
</svg>
