<svg width="205" height="587" viewBox="0 0 205 587" fill="none" xmlns="http://www.w3.org/2000/svg">
<path d="M20.0521 31C-4.27819 184.089 18.7204 226.841 110 244" stroke="#383838" stroke-width="5"/>
<circle cx="18" cy="35" r="18" fill="#383838"/>
<path d="M7.0542 29.3359L10.5405 38.0371L14.0269 29.3359H15.8506V40H14.4443V35.8472L14.5762 31.3647L11.0752 40H9.99854L6.50488 31.3867L6.64404 35.8472V40H5.23779V29.3359H7.0542ZM23.1637 40C23.0855 39.8438 23.0221 39.5654 22.9732 39.165C22.3434 39.8193 21.5914 40.1465 20.7174 40.1465C19.9361 40.1465 19.294 39.9268 18.7911 39.4873C18.2931 39.043 18.044 38.4814 18.044 37.8027C18.044 36.9775 18.3565 36.3379 18.9815 35.8838C19.6114 35.4248 20.4952 35.1953 21.6329 35.1953H22.9513V34.5728C22.9513 34.0991 22.8097 33.7231 22.5265 33.4448C22.2433 33.1616 21.8258 33.02 21.274 33.02C20.7906 33.02 20.3854 33.1421 20.0582 33.3862C19.7311 33.6304 19.5675 33.9258 19.5675 34.2725H18.2052C18.2052 33.877 18.3443 33.4961 18.6227 33.1299C18.9059 32.7588 19.2867 32.4658 19.7652 32.251C20.2486 32.0361 20.7784 31.9287 21.3546 31.9287C22.2677 31.9287 22.983 32.1582 23.5006 32.6172C24.0182 33.0713 24.2867 33.6987 24.3062 34.4995V38.147C24.3062 38.8745 24.399 39.4531 24.5846 39.8828V40H23.1637ZM20.9151 38.9673C21.3399 38.9673 21.7428 38.8574 22.1236 38.6377C22.5045 38.418 22.7804 38.1323 22.9513 37.7808V36.1548H21.8893C20.2291 36.1548 19.399 36.6406 19.399 37.6123C19.399 38.0371 19.5406 38.3691 19.8238 38.6084C20.107 38.8477 20.4708 38.9673 20.9151 38.9673ZM29.0559 38.0151L30.9016 32.0752H32.3518L29.1657 41.2231C28.6726 42.5415 27.8889 43.2007 26.8146 43.2007L26.5583 43.1787L26.0529 43.0835V41.9849L26.4191 42.0142C26.8781 42.0142 27.2346 41.9214 27.4885 41.7358C27.7473 41.5503 27.9597 41.2109 28.1257 40.7178L28.426 39.9121L25.5988 32.0752H27.0783L29.0559 38.0151Z" fill="white"/>
<path d="M71.0877 25.251C72.3309 24.6503 72.8517 23.1555 72.251 21.9123L62.4618 1.65344C61.8611 0.410252 60.3663 -0.110575 59.1231 0.490137C57.88 1.09085 57.3591 2.58562 57.9598 3.82881L66.6613 21.8367L48.6534 30.5382C47.4103 31.1389 46.8894 32.6337 47.4901 33.8769C48.0908 35.12 49.5856 35.6409 50.8288 35.0402L71.0877 25.251ZM30.9766 24.5307C32.5589 22.4875 35.413 21.2281 39.3895 20.7349C43.3164 20.2479 47.9124 20.5653 52.3879 21.2523C56.8396 21.9357 61.0461 22.9643 64.1496 23.8267C65.6981 24.257 66.9641 24.6436 67.8393 24.9214C68.2767 25.0603 68.616 25.1718 68.8437 25.2478C68.9575 25.2858 69.0433 25.3149 69.0995 25.334C69.1276 25.3436 69.1483 25.3507 69.1614 25.3552C69.1679 25.3575 69.1725 25.3591 69.1752 25.36C69.1765 25.3605 69.1774 25.3608 69.1778 25.3609C69.178 25.361 69.1779 25.361 69.178 25.361C69.1778 25.3609 69.1774 25.3608 70 23C70.8226 20.6392 70.822 20.639 70.8213 20.6388C70.8209 20.6386 70.8201 20.6383 70.8193 20.6381C70.8177 20.6375 70.8156 20.6368 70.813 20.6359C70.8079 20.6341 70.8008 20.6316 70.7918 20.6285C70.7737 20.6223 70.7479 20.6134 70.7147 20.6021C70.6482 20.5794 70.5517 20.5467 70.4269 20.505C70.1773 20.4217 69.8144 20.3025 69.352 20.1557C68.4274 19.8623 67.1029 19.4579 65.4882 19.0092C62.2656 18.1138 57.8557 17.0331 53.1465 16.3102C48.461 15.5909 43.3515 15.2052 38.7741 15.7729C34.2464 16.3344 29.7973 17.8875 27.0234 21.4693L30.9766 24.5307Z" fill="#383838"/>
<path d="M163.522 275.062C162.304 275.713 160.789 275.253 160.139 274.035L149.535 254.191C148.884 252.973 149.344 251.458 150.562 250.807C151.779 250.157 153.294 250.616 153.945 251.834L163.37 269.474L181.01 260.048C182.228 259.397 183.742 259.857 184.393 261.075C185.044 262.293 184.584 263.807 183.366 264.458L163.522 275.062ZM130.824 236.569C142.236 233.825 150.433 234.497 156.177 237.579C161.998 240.701 164.795 246.018 165.986 251.379C167.168 256.698 166.829 262.271 166.236 266.418C165.937 268.51 165.567 270.283 165.271 271.539C165.122 272.167 164.992 272.668 164.897 273.016C164.849 273.191 164.811 273.327 164.783 273.422C164.769 273.47 164.758 273.508 164.75 273.535C164.746 273.548 164.743 273.559 164.741 273.567C164.739 273.571 164.738 273.574 164.738 273.577C164.737 273.578 164.737 273.58 164.737 273.58C164.736 273.582 164.736 273.583 162.344 272.857C159.951 272.131 159.951 272.132 159.951 272.132C159.951 272.132 159.951 272.133 159.951 272.133C159.951 272.133 159.951 272.132 159.951 272.131C159.952 272.128 159.954 272.123 159.956 272.115C159.961 272.099 159.969 272.073 159.979 272.036C160 271.964 160.032 271.852 160.072 271.702C160.154 271.403 160.27 270.958 160.405 270.389C160.674 269.25 161.013 267.627 161.286 265.711C161.839 261.84 162.101 256.945 161.105 252.463C160.119 248.025 157.961 244.209 153.814 241.985C149.59 239.719 142.807 238.831 131.992 241.43L130.824 236.569Z" fill="#383838"/>
<circle cx="119" cy="247" r="18" fill="#383838"/>
<path d="M107.706 241.336H109.119V248.887C109.119 249.908 108.812 250.706 108.196 251.282C107.586 251.858 106.771 252.146 105.75 252.146C104.69 252.146 103.865 251.875 103.274 251.333C102.684 250.792 102.388 250.032 102.388 249.056H103.794C103.794 249.666 103.96 250.142 104.292 250.484C104.629 250.826 105.115 250.997 105.75 250.997C106.331 250.997 106.8 250.813 107.156 250.447C107.518 250.081 107.701 249.568 107.706 248.909V241.336ZM116.344 251.216C115.817 251.836 115.043 252.146 114.023 252.146C113.178 252.146 112.533 251.902 112.089 251.414C111.65 250.921 111.427 250.193 111.422 249.231V244.075H112.777V249.195C112.777 250.396 113.266 250.997 114.242 250.997C115.277 250.997 115.966 250.611 116.308 249.839V244.075H117.663V252H116.374L116.344 251.216ZM121.16 244.075L121.204 245.071C121.809 244.31 122.6 243.929 123.577 243.929C125.252 243.929 126.096 244.874 126.111 246.763V252H124.756V246.756C124.751 246.185 124.619 245.762 124.361 245.489C124.107 245.215 123.709 245.079 123.167 245.079C122.727 245.079 122.342 245.196 122.009 245.43C121.677 245.665 121.419 245.972 121.233 246.353V252H119.878V244.075H121.16ZM131.593 252.146C130.519 252.146 129.645 251.795 128.971 251.092C128.297 250.384 127.96 249.439 127.96 248.257V248.008C127.96 247.222 128.109 246.521 128.407 245.906C128.71 245.286 129.13 244.803 129.667 244.456C130.209 244.104 130.795 243.929 131.425 243.929C132.455 243.929 133.256 244.268 133.827 244.947C134.398 245.625 134.684 246.597 134.684 247.862V248.426H129.315C129.335 249.207 129.562 249.839 129.996 250.323C130.436 250.801 130.992 251.041 131.666 251.041C132.145 251.041 132.55 250.943 132.882 250.748C133.214 250.552 133.505 250.293 133.754 249.971L134.581 250.616C133.917 251.636 132.921 252.146 131.593 252.146ZM131.425 245.042C130.878 245.042 130.419 245.242 130.048 245.643C129.677 246.038 129.447 246.595 129.359 247.312H133.329V247.21C133.29 246.521 133.104 245.989 132.772 245.613C132.44 245.232 131.991 245.042 131.425 245.042Z" fill="white"/>
<path d="M112 253C14.5 276 14.5 346 24 406C33.5 466 31.5 549 129.5 527" stroke="#383838" stroke-width="5"/>
<path d="M202.042 545.513C203.422 545.543 204.517 546.687 204.487 548.067L203.997 570.562C203.967 571.942 202.824 573.037 201.443 573.007C200.063 572.977 198.968 571.833 198.998 570.453L199.433 550.458L179.438 550.023C178.058 549.993 176.963 548.849 176.993 547.469C177.023 546.089 178.167 544.994 179.547 545.024L202.042 545.513ZM139.592 529.357C137.914 540.996 137.681 549.878 138.492 556.534C139.304 563.204 141.138 567.439 143.408 570.022C147.723 574.929 154.77 574.906 163.554 571.469C172.167 568.098 181.319 561.832 188.406 556.305C191.929 553.557 194.9 551.025 196.989 549.181C198.033 548.26 198.855 547.512 199.414 546.996C199.694 546.738 199.907 546.538 200.05 546.404C200.121 546.337 200.174 546.287 200.209 546.254C200.227 546.237 200.24 546.225 200.248 546.217C200.252 546.213 200.255 546.21 200.257 546.209C200.258 546.208 200.258 546.207 200.258 546.207C200.259 546.207 200.258 546.207 201.987 548.013C203.716 549.819 203.715 549.819 203.714 549.82C203.714 549.821 203.712 549.822 203.711 549.824C203.708 549.827 203.703 549.831 203.698 549.836C203.687 549.846 203.672 549.861 203.652 549.88C203.611 549.918 203.552 549.974 203.476 550.046C203.322 550.191 203.097 550.401 202.805 550.67C202.222 551.209 201.372 551.982 200.298 552.93C198.15 554.825 195.1 557.425 191.481 560.247C184.286 565.859 174.676 572.485 165.376 576.125C156.248 579.697 146.229 580.803 139.653 573.323C136.478 569.711 134.409 564.374 133.528 557.138C132.646 549.888 132.93 540.53 134.643 528.643L139.592 529.357Z" fill="#383838"/>
<circle cx="135" cy="527" r="18" fill="#383838"/>
<path d="M126.706 521.336H128.119V528.887C128.119 529.908 127.812 530.706 127.196 531.282C126.586 531.858 125.771 532.146 124.75 532.146C123.69 532.146 122.865 531.875 122.274 531.333C121.684 530.792 121.388 530.032 121.388 529.056H122.794C122.794 529.666 122.96 530.142 123.292 530.484C123.629 530.826 124.115 530.997 124.75 530.997C125.331 530.997 125.8 530.813 126.156 530.447C126.518 530.081 126.701 529.568 126.706 528.909V521.336ZM135.344 531.216C134.817 531.836 134.043 532.146 133.023 532.146C132.178 532.146 131.533 531.902 131.089 531.414C130.65 530.921 130.427 530.193 130.422 529.231V524.075H131.777V529.195C131.777 530.396 132.266 530.997 133.242 530.997C134.277 530.997 134.966 530.611 135.308 529.839V524.075H136.663V532H135.374L135.344 531.216ZM140.35 532H138.995V520.75H140.35V532ZM145.268 530.015L147.114 524.075H148.564L145.378 533.223C144.885 534.542 144.101 535.201 143.027 535.201L142.771 535.179L142.265 535.083V533.985L142.632 534.014C143.091 534.014 143.447 533.921 143.701 533.736C143.96 533.55 144.172 533.211 144.338 532.718L144.638 531.912L141.811 524.075H143.291L145.268 530.015Z" fill="white"/>
</svg>
