<svg width="1920" height="242" viewBox="0 0 1920 242" fill="none" xmlns="http://www.w3.org/2000/svg">
<path d="M-33 113.969C372.695 363.789 943.5 113.969 943.5 113.969C943.5 113.969 1529.2 -119.961 1920 113.969" stroke="#383838" stroke-width="20"/>
<path d="M170.5 159L186.356 178.677L209.969 187.676L196.155 208.836L194.893 234.074L170.5 227.475L146.107 234.074L144.845 208.836L131.031 187.676L154.644 178.677L170.5 159Z" fill="#FFCE50"/>
<path d="M170.5 159L186.356 178.677L209.969 187.676L196.155 208.836L194.893 234.074L170.5 227.475L146.107 234.074L144.845 208.836L131.031 187.676L154.644 178.677L170.5 159Z" fill="url(#paint0_linear)"/>
<path d="M960.5 65L976.356 84.6768L999.969 93.6758L986.155 114.836L984.893 140.074L960.5 133.475L936.107 140.074L934.845 114.836L921.031 93.6758L944.644 84.6768L960.5 65Z" fill="#FFCE50"/>
<path d="M960.5 65L976.356 84.6768L999.969 93.6758L986.155 114.836L984.893 140.074L960.5 133.475L936.107 140.074L934.845 114.836L921.031 93.6758L944.644 84.6768L960.5 65Z" fill="url(#paint1_linear)"/>
<path d="M1786.5 10L1802.36 29.6768L1825.97 38.6758L1812.15 59.8357L1810.89 85.0742L1786.5 78.475L1762.11 85.0742L1760.85 59.8357L1747.03 38.6758L1770.64 29.6768L1786.5 10Z" fill="#FFCE50"/>
<path d="M1786.5 10L1802.36 29.6768L1825.97 38.6758L1812.15 59.8357L1810.89 85.0742L1786.5 78.475L1762.11 85.0742L1760.85 59.8357L1747.03 38.6758L1770.64 29.6768L1786.5 10Z" fill="url(#paint2_linear)"/>
<defs>
<linearGradient id="paint0_linear" x1="170.5" y1="109" x2="170.5" y2="242" gradientUnits="userSpaceOnUse">
<stop stop-color="white"/>
<stop offset="1" stop-color="white" stop-opacity="0"/>
</linearGradient>
<linearGradient id="paint1_linear" x1="960.5" y1="3.5" x2="960.5" y2="148" gradientUnits="userSpaceOnUse">
<stop stop-color="white"/>
<stop offset="1" stop-color="white" stop-opacity="0"/>
</linearGradient>
<linearGradient id="paint2_linear" x1="1786.5" y1="-43.5" x2="1786.5" y2="93" gradientUnits="userSpaceOnUse">
<stop stop-color="white"/>
<stop offset="1" stop-color="white" stop-opacity="0"/>
</linearGradient>
</defs>
</svg>
