<svg width="421" height="869" viewBox="0 0 421 869" fill="none" xmlns="http://www.w3.org/2000/svg">
<path d="M26.5001 34C-6.09435 239.197 24.716 296.5 147 319.5" stroke="#383838" stroke-width="5"/>
<circle cx="24" cy="39" r="24" fill="#383838"/>
<path d="M211.277 359.199C210.06 359.849 208.545 359.39 207.894 358.172L197.29 338.327C196.64 337.109 197.099 335.595 198.317 334.944C199.535 334.293 201.05 334.753 201.7 335.971L211.126 353.61L228.766 344.185C229.983 343.534 231.498 343.994 232.149 345.212C232.8 346.429 232.34 347.944 231.122 348.595L211.277 359.199ZM172.416 313.959C186.042 310.684 195.731 311.512 202.469 315.125C209.283 318.78 212.574 325.007 213.982 331.344C215.38 337.64 214.981 344.255 214.274 349.201C213.918 351.693 213.478 353.804 213.125 355.298C212.948 356.046 212.793 356.641 212.68 357.054C212.624 357.26 212.579 357.422 212.546 357.534C212.53 357.59 212.517 357.634 212.508 357.665C212.503 357.68 212.5 357.693 212.497 357.702C212.495 357.707 212.494 357.71 212.493 357.713C212.493 357.715 212.493 357.716 212.492 357.717C212.492 357.718 212.492 357.72 210.099 356.994C207.707 356.268 207.707 356.268 207.707 356.269C207.707 356.269 207.707 356.269 207.707 356.269C207.707 356.269 207.707 356.268 207.708 356.266C207.709 356.262 207.711 356.255 207.714 356.245C207.72 356.225 207.729 356.192 207.742 356.148C207.768 356.059 207.807 355.921 207.856 355.74C207.955 355.377 208.096 354.837 208.259 354.149C208.584 352.771 208.994 350.81 209.324 348.494C209.992 343.824 210.313 337.886 209.101 332.429C207.898 327.014 205.246 322.289 200.106 319.532C194.889 316.734 186.613 315.689 173.584 318.821L172.416 313.959Z" fill="#383838"/>
<path d="M395.042 823.513C396.422 823.543 397.517 824.687 397.487 826.067L396.997 848.562C396.967 849.942 395.824 851.037 394.443 851.007C393.063 850.977 391.968 849.833 391.998 848.453L392.433 828.458L372.438 828.023C371.058 827.993 369.963 826.849 369.993 825.469C370.023 824.089 371.167 822.994 372.547 823.024L395.042 823.513ZM332.592 807.357C330.914 818.996 330.681 827.878 331.492 834.534C332.304 841.204 334.138 845.439 336.408 848.022C340.723 852.929 347.77 852.906 356.554 849.469C365.167 846.098 374.319 839.832 381.406 834.305C384.929 831.557 387.9 829.025 389.989 827.181C391.033 826.26 391.855 825.512 392.414 824.996C392.694 824.738 392.907 824.538 393.05 824.404C393.121 824.337 393.174 824.287 393.209 824.254C393.227 824.237 393.24 824.225 393.248 824.217C393.252 824.213 393.255 824.21 393.257 824.209C393.258 824.208 393.258 824.207 393.258 824.207C393.259 824.207 393.258 824.207 394.987 826.013C396.716 827.819 396.715 827.819 396.714 827.82C396.714 827.821 396.712 827.822 396.711 827.824C396.708 827.827 396.703 827.831 396.698 827.836C396.687 827.846 396.672 827.861 396.652 827.88C396.611 827.918 396.552 827.974 396.476 828.046C396.322 828.191 396.097 828.401 395.805 828.67C395.222 829.209 394.372 829.982 393.298 830.93C391.15 832.825 388.1 835.425 384.481 838.247C377.286 843.859 367.676 850.485 358.376 854.125C349.248 857.697 339.229 858.803 332.653 851.323C329.478 847.711 327.409 842.374 326.528 835.138C325.646 827.888 325.93 818.53 327.643 806.643L332.592 807.357Z" fill="#383838"/>
<path d="M9.07227 30.7812L13.7207 42.3828L18.3691 30.7812H20.8008V45H18.9258V39.4629L19.1016 33.4863L14.4336 45H12.998L8.33984 33.5156L8.52539 39.4629V45H6.65039V30.7812H9.07227ZM30.5516 45C30.4474 44.7917 30.3628 44.4206 30.2977 43.8867C29.4578 44.7591 28.4552 45.1953 27.2898 45.1953C26.2482 45.1953 25.3921 44.9023 24.7215 44.3164C24.0574 43.724 23.7254 42.9753 23.7254 42.0703C23.7254 40.9701 24.1421 40.1172 24.9754 39.5117C25.8152 38.8997 26.9936 38.5938 28.5105 38.5938H30.2684V37.7637C30.2684 37.1322 30.0796 36.6309 29.702 36.2598C29.3243 35.8822 28.7677 35.6934 28.032 35.6934C27.3875 35.6934 26.8471 35.8561 26.4109 36.1816C25.9747 36.5072 25.7566 36.901 25.7566 37.3633H23.9402C23.9402 36.8359 24.1258 36.3281 24.4969 35.8398C24.8745 35.3451 25.3823 34.9544 26.0203 34.668C26.6648 34.3815 27.3712 34.2383 28.1395 34.2383C29.3569 34.2383 30.3107 34.5443 31.0008 35.1562C31.6909 35.7617 32.049 36.5983 32.075 37.666V42.5293C32.075 43.4993 32.1987 44.2708 32.4461 44.8438V45H30.5516ZM27.5535 43.623C28.1199 43.623 28.657 43.4766 29.1648 43.1836C29.6727 42.8906 30.0405 42.5098 30.2684 42.041V39.873H28.8523C26.6388 39.873 25.532 40.5208 25.532 41.8164C25.532 42.3828 25.7208 42.8255 26.0984 43.1445C26.476 43.4635 26.9611 43.623 27.5535 43.623ZM38.4078 42.3535L40.8687 34.4336H42.8023L38.5543 46.6309C37.8967 48.3887 36.8518 49.2676 35.4195 49.2676L35.0777 49.2383L34.4039 49.1113V47.6465L34.8922 47.6855C35.5042 47.6855 35.9794 47.5618 36.318 47.3145C36.663 47.0671 36.9462 46.6146 37.1676 45.957L37.568 44.8828L33.7984 34.4336H35.7711L38.4078 42.3535Z" fill="white"/>
<circle cx="160" cy="328" r="24" fill="#383838"/>
<path d="M145.607 319.781H147.492V329.85C147.492 331.21 147.082 332.275 146.262 333.043C145.448 333.811 144.361 334.195 143 334.195C141.587 334.195 140.487 333.834 139.699 333.111C138.911 332.389 138.518 331.376 138.518 330.074H140.393C140.393 330.888 140.614 331.523 141.057 331.979C141.506 332.434 142.154 332.662 143 332.662C143.775 332.662 144.4 332.418 144.875 331.93C145.357 331.441 145.601 330.758 145.607 329.879V319.781ZM157.126 332.955C156.423 333.782 155.391 334.195 154.03 334.195C152.904 334.195 152.044 333.87 151.452 333.219C150.866 332.561 150.57 331.591 150.563 330.309V323.434H152.37V330.26C152.37 331.861 153.021 332.662 154.323 332.662C155.703 332.662 156.621 332.148 157.077 331.119V323.434H158.884V334H157.165L157.126 332.955ZM163.546 323.434L163.605 324.762C164.412 323.746 165.467 323.238 166.769 323.238C169.002 323.238 170.129 324.498 170.148 327.018V334H168.341V327.008C168.335 326.246 168.159 325.683 167.814 325.318C167.476 324.954 166.945 324.771 166.222 324.771C165.636 324.771 165.122 324.928 164.679 325.24C164.237 325.553 163.892 325.963 163.644 326.471V334H161.837V323.434H163.546ZM177.457 334.195C176.025 334.195 174.86 333.727 173.961 332.789C173.063 331.845 172.614 330.585 172.614 329.01V328.678C172.614 327.63 172.812 326.695 173.209 325.875C173.613 325.048 174.173 324.404 174.889 323.941C175.612 323.473 176.393 323.238 177.233 323.238C178.607 323.238 179.674 323.691 180.436 324.596C181.198 325.501 181.579 326.796 181.579 328.482V329.234H174.42C174.446 330.276 174.749 331.119 175.329 331.764C175.914 332.402 176.657 332.721 177.555 332.721C178.193 332.721 178.733 332.59 179.176 332.33C179.619 332.07 180.006 331.725 180.338 331.295L181.442 332.154C180.556 333.515 179.228 334.195 177.457 334.195ZM177.233 324.723C176.504 324.723 175.892 324.99 175.397 325.523C174.902 326.051 174.596 326.793 174.479 327.75H179.772V327.613C179.72 326.695 179.472 325.986 179.03 325.484C178.587 324.977 177.988 324.723 177.233 324.723Z" fill="white"/>
<path d="M161.5 337C40.8708 428.552 11.6983 536.268 36.9999 620.5C62.3016 704.732 199.184 830.77 320.5 795.5" stroke="#383838" stroke-width="5"/>
<circle cx="326" cy="796" r="24" fill="#383838"/>
<path d="M314.607 787.781H316.492V797.85C316.492 799.21 316.082 800.275 315.262 801.043C314.448 801.811 313.361 802.195 312 802.195C310.587 802.195 309.487 801.834 308.699 801.111C307.911 800.389 307.518 799.376 307.518 798.074H309.393C309.393 798.888 309.614 799.523 310.057 799.979C310.506 800.434 311.154 800.662 312 800.662C312.775 800.662 313.4 800.418 313.875 799.93C314.357 799.441 314.601 798.758 314.607 797.879V787.781ZM326.126 800.955C325.423 801.782 324.391 802.195 323.03 802.195C321.904 802.195 321.044 801.87 320.452 801.219C319.866 800.561 319.57 799.591 319.563 798.309V791.434H321.37V798.26C321.37 799.861 322.021 800.662 323.323 800.662C324.703 800.662 325.621 800.148 326.077 799.119V791.434H327.884V802H326.165L326.126 800.955ZM332.8 802H330.994V787H332.8V802ZM339.358 799.354L341.819 791.434H343.752L339.504 803.631C338.847 805.389 337.802 806.268 336.37 806.268L336.028 806.238L335.354 806.111V804.646L335.842 804.686C336.454 804.686 336.929 804.562 337.268 804.314C337.613 804.067 337.896 803.615 338.118 802.957L338.518 801.883L334.748 791.434H336.721L339.358 799.354Z" fill="white"/>
<path d="M95.1617 25.2137C96.3843 24.5722 96.8553 23.0609 96.2137 21.8383L85.7588 1.91486C85.1173 0.692258 83.6061 0.221233 82.3834 0.862797C81.1608 1.50436 80.6898 3.01557 81.3314 4.23817L90.6246 21.9479L72.9149 31.2412C71.6923 31.8827 71.2212 33.3939 71.8628 34.6166C72.5044 35.8392 74.0156 36.3102 75.2382 35.6686L95.1617 25.2137ZM40.8901 24.6363C43.1911 21.9784 47.309 20.3986 52.8001 19.7894C58.2129 19.1889 64.4929 19.5835 70.5427 20.4143C76.5711 21.2421 82.2582 22.4866 86.4468 23.5277C88.5381 24.0476 90.2488 24.5149 91.4332 24.8512C92.0253 25.0193 92.4854 25.1546 92.7954 25.2472C92.9504 25.2934 93.0678 25.329 93.1453 25.3527C93.1841 25.3646 93.2129 25.3734 93.2315 25.3791C93.2407 25.382 93.2475 25.3841 93.2516 25.3854C93.2536 25.386 93.255 25.3864 93.2558 25.3867C93.2562 25.3868 93.2562 25.3868 93.2564 25.3869C93.2563 25.3868 93.2561 25.3868 94 23C94.7439 20.6132 94.7433 20.6131 94.7426 20.6128C94.7421 20.6127 94.7412 20.6124 94.7403 20.6121C94.7384 20.6115 94.7358 20.6107 94.7326 20.6097C94.7262 20.6078 94.7172 20.605 94.7057 20.6014C94.6825 20.5942 94.649 20.5839 94.6055 20.5707C94.5184 20.5441 94.3912 20.5055 94.226 20.4562C93.8959 20.3576 93.4141 20.216 92.799 20.0414C91.5691 19.6921 89.8047 19.2103 87.6529 18.6754C83.3551 17.6071 77.4835 16.3204 71.2229 15.4607C64.9836 14.604 58.2442 14.1548 52.2488 14.8199C46.3316 15.4764 40.6526 17.2716 37.1099 21.3637L40.8901 24.6363Z" fill="#383838"/>
</svg>
